<svg width="15" height="14" viewBox="0 0 15 14" fill="none" xmlns="http://www.w3.org/2000/svg">
<g clip-path="url(#clip0_84_3509)">
<path d="M7.63261 1.12111C5.54765 1.11565 3.71288 2.19436 2.66425 3.82404C2.61776 3.89651 2.66972 3.99221 2.75585 3.99221H3.71698C3.78261 3.99221 3.84413 3.9635 3.88515 3.91291C3.98085 3.7967 4.08339 3.68459 4.1914 3.57795C4.6371 3.13361 5.15526 2.78361 5.73222 2.54025C6.32831 2.28869 6.96269 2.16018 7.61757 2.16018C8.27245 2.16018 8.90683 2.28733 9.50292 2.54025C10.0799 2.78361 10.598 3.13361 11.0437 3.57795C11.4894 4.02229 11.8381 4.54045 12.0828 5.11604C12.3357 5.71213 12.4629 6.34514 12.4629 7.00002C12.4629 7.6549 12.3344 8.28791 12.0828 8.884C11.8394 9.45959 11.4894 9.97775 11.0437 10.4221C10.598 10.8664 10.0799 11.2164 9.50292 11.4598C8.90636 11.7118 8.26516 11.841 7.61757 11.8399C6.96269 11.8399 6.32831 11.7113 5.73222 11.4598C5.1564 11.2167 4.63314 10.8643 4.1914 10.4221C4.08339 10.3141 3.98222 10.202 3.88515 10.0871C3.84413 10.0365 3.78124 10.0078 3.71698 10.0078H2.75585C2.66972 10.0078 2.6164 10.1035 2.66425 10.176C3.71151 11.8016 5.53808 12.8789 7.61757 12.8789C10.8469 12.8789 13.4691 10.2799 13.5019 7.06018C13.5348 3.7885 10.9084 1.12932 7.63261 1.12111Z" fill="white"/>
<path d="M1.08789 7H6.39258" stroke="white" stroke-linecap="round"/>
</g>
<defs>
<clipPath id="clip0_84_3509">
<rect width="14" height="14" fill="white" transform="translate(0.5)"/>
</clipPath>
</defs>
</svg>
