<svg width="32" height="32" viewBox="0 0 32 32" fill="none" xmlns="http://www.w3.org/2000/svg">
<g clip-path="url(#clip0_213_205)">
<path d="M28.2251 0H3.7749C1.69008 0 0 1.69022 0 3.77521V28.2248C0 30.3098 1.69008 32 3.7749 32H28.2251C30.3099 32 32 30.3098 32 28.2248V3.77521C32 1.69022 30.3099 0 28.2251 0Z" fill="url(#paint0_linear_213_205)"/>
<path d="M13.8763 15.2588C13.8763 15.2588 15.9581 15.1034 15.9581 12.6505C15.9581 10.1976 14.255 9 12.0979 9H5V22.7092H12.0979C12.0979 22.7092 16.4299 22.8467 16.4299 18.6622C16.4299 18.6622 16.6203 15.2588 13.8763 15.2588ZM8.12663 11.437H12.0919C12.0919 11.437 13.0575 11.437 13.0575 12.8637C13.0575 14.2904 12.4904 14.4976 11.8461 14.4976H8.12861L8.12663 11.437ZM11.9135 20.2722H8.12861V16.6098H12.0939C12.0939 16.6098 13.5313 16.5899 13.5313 18.4928C13.5353 20.077 12.4845 20.2563 11.9155 20.2722H11.9135ZM22.2093 12.4891C16.9633 12.4891 16.9692 17.7556 16.9692 17.7556C16.9692 17.7556 16.6084 22.9961 22.2093 22.9961C22.2093 22.9961 26.8765 23.2632 26.8765 19.3516H24.4775C24.4775 19.3516 24.5568 20.8262 22.2966 20.8262C22.2966 20.8262 19.8956 20.9876 19.8956 18.435H26.9637C26.9637 18.435 27.731 12.4891 22.2093 12.4891ZM24.3427 16.6098H19.8619C19.8619 16.6098 20.1553 14.4976 22.2629 14.4976C24.3704 14.4976 24.3427 16.6098 24.3427 16.6098ZM19.275 9.809H24.9018V11.4968H19.275V9.809Z" fill="white"/>
</g>
<defs>
<linearGradient id="paint0_linear_213_205" x1="16" y1="0" x2="16" y2="32.0026" gradientUnits="userSpaceOnUse">
<stop stop-color="#005CFF"/>
<stop offset="1" stop-color="#0047AD"/>
</linearGradient>
<clipPath id="clip0_213_205">
<rect width="32" height="32" rx="16" fill="white"/>
</clipPath>
</defs>
</svg>
