<svg width="21" height="20" viewBox="0 0 21 20" fill="none" xmlns="http://www.w3.org/2000/svg">
<path fill-rule="evenodd" clip-rule="evenodd" d="M7.94277 19.0621H12.4809C15.668 19.0621 17.2621 19.0621 18.4069 18.2837C18.9008 17.948 19.3262 17.5148 19.6588 17.0087C20.4237 15.8438 20.4237 14.2204 20.4237 10.9756C20.4237 7.72972 20.4237 6.10732 19.6588 4.94242C19.3262 4.43633 18.9008 4.00308 18.4069 3.66738C17.6716 3.16647 16.7505 2.9875 15.3402 2.92396C14.6673 2.92396 14.0883 2.40505 13.9565 1.73258C13.8559 1.24 13.5943 0.798576 13.216 0.482903C12.8377 0.16723 12.366 -0.00333037 11.8805 4.92763e-05H8.54323C7.5343 4.92763e-05 6.66527 0.725467 6.46716 1.73258C6.33543 2.40505 5.75642 2.92396 5.08346 2.92396C3.67422 2.9875 2.75311 3.16753 2.01684 3.66738C1.52322 4.00315 1.09816 4.4364 0.765888 4.94242C0 6.10732 0 7.72972 0 10.9756C0 14.2204 5.13714e-08 15.8427 0.764867 17.0087C1.09573 17.5128 1.52054 17.9459 2.01684 18.2837C3.16159 19.0621 4.75566 19.0621 7.94277 19.0621ZM10.2118 6.64318C7.8621 6.64318 5.95657 8.58222 5.95657 10.9745C5.95657 13.3679 7.8621 15.3079 10.2118 15.3079C12.5616 15.3079 14.4671 13.3679 14.4671 10.9756C14.4671 8.58222 12.5616 6.64318 10.2118 6.64318ZM10.2118 8.37571C8.80261 8.37571 7.65888 9.53955 7.65888 10.9756C7.65888 12.4105 8.80261 13.5744 10.2118 13.5744C11.6211 13.5744 12.7648 12.4105 12.7648 10.9756C12.7648 9.53955 11.6211 8.37571 10.2118 8.37571ZM15.0339 7.50944C15.0339 7.03077 15.4148 6.64318 15.8855 6.64318H17.0191C17.4888 6.64318 17.8707 7.03077 17.8707 7.50944C17.8686 7.74126 17.7778 7.9627 17.6183 8.12513C17.4588 8.28756 17.2436 8.37768 17.0201 8.37571H15.8855C15.7748 8.37683 15.6649 8.35531 15.5621 8.31238C15.4594 8.26945 15.3658 8.20595 15.2867 8.12551C15.2076 8.04507 15.1446 7.94926 15.1012 7.84355C15.0578 7.73785 15.0349 7.62432 15.0339 7.50944Z" fill="black"/>
</svg>
