<svg width="20" height="21" viewBox="0 0 20 21" fill="none" xmlns="http://www.w3.org/2000/svg">
<path d="M10 0.5C4.486 0.5 0 4.986 0 10.5V14.643C0 15.667 0.897 16.5 2 16.5H3C3.26522 16.5 3.51957 16.3946 3.70711 16.2071C3.89464 16.0196 4 15.7652 4 15.5V10.357C4 10.0918 3.89464 9.83743 3.70711 9.64989C3.51957 9.46236 3.26522 9.357 3 9.357H2.092C2.648 5.487 5.978 2.5 10 2.5C14.022 2.5 17.352 5.487 17.908 9.357H17C16.7348 9.357 16.4804 9.46236 16.2929 9.64989C16.1054 9.83743 16 10.0918 16 10.357V16.5C16 17.603 15.103 18.5 14 18.5H12V17.5H8V20.5H14C16.206 20.5 18 18.706 18 16.5C19.103 16.5 20 15.667 20 14.643V10.5C20 4.986 15.514 0.5 10 0.5Z" fill="#D9D9D9"/>
</svg>
