<svg width="18" height="17" viewBox="0 0 18 17" fill="none" xmlns="http://www.w3.org/2000/svg">
<path d="M6.62225 0.205688H1.97109C1.6113 0.205688 1.26625 0.348614 1.01184 0.603024C0.757428 0.857434 0.614502 1.20249 0.614502 1.56228V6.21344C0.614502 6.39159 0.649591 6.568 0.717766 6.73258C0.785941 6.89717 0.885867 7.04672 1.01184 7.17269C1.13781 7.29866 1.28736 7.39859 1.45195 7.46676C1.61654 7.53494 1.79294 7.57003 1.97109 7.57003H6.62225C6.8004 7.57003 6.97681 7.53494 7.1414 7.46676C7.30599 7.39859 7.45554 7.29866 7.58151 7.17269C7.70748 7.04672 7.8074 6.89717 7.87558 6.73258C7.94375 6.568 7.97884 6.39159 7.97884 6.21344V1.56228C7.97884 1.38413 7.94375 1.20772 7.87558 1.04313C7.8074 0.878545 7.70748 0.728995 7.58151 0.603024C7.45554 0.477053 7.30599 0.377128 7.1414 0.308953C6.97681 0.240778 6.8004 0.205688 6.62225 0.205688ZM6.81605 6.21344C6.81605 6.26484 6.79563 6.31413 6.75929 6.35048C6.72295 6.38682 6.67365 6.40724 6.62225 6.40724H1.97109C1.91969 6.40724 1.8704 6.38682 1.83405 6.35048C1.79771 6.31413 1.77729 6.26484 1.77729 6.21344V1.56228C1.77729 1.51088 1.79771 1.46159 1.83405 1.42524C1.8704 1.3889 1.91969 1.36848 1.97109 1.36848H6.62225C6.67365 1.36848 6.72295 1.3889 6.75929 1.42524C6.79563 1.46159 6.81605 1.51088 6.81605 1.56228V6.21344ZM15.9246 0.205688H11.2734C10.9136 0.205688 10.5686 0.348614 10.3142 0.603024C10.0598 0.857434 9.91683 1.20249 9.91683 1.56228V6.21344C9.91683 6.39159 9.95192 6.568 10.0201 6.73258C10.0883 6.89717 10.1882 7.04672 10.3142 7.17269C10.4401 7.29866 10.5897 7.39859 10.7543 7.46676C10.9189 7.53494 11.0953 7.57003 11.2734 7.57003H15.9246C16.1027 7.57003 16.2791 7.53494 16.4437 7.46676C16.6083 7.39859 16.7579 7.29866 16.8838 7.17269C17.0098 7.04672 17.1097 6.89717 17.1779 6.73258C17.2461 6.568 17.2812 6.39159 17.2812 6.21344V1.56228C17.2812 1.20249 17.1382 0.857434 16.8838 0.603024C16.6294 0.348614 16.2844 0.205688 15.9246 0.205688ZM16.1184 6.21344C16.1184 6.26484 16.098 6.31413 16.0616 6.35048C16.0253 6.38682 15.976 6.40724 15.9246 6.40724H11.2734C11.222 6.40724 11.1727 6.38682 11.1364 6.35048C11.1 6.31413 11.0796 6.26484 11.0796 6.21344V1.56228C11.0796 1.51088 11.1 1.46159 11.1364 1.42524C11.1727 1.3889 11.222 1.36848 11.2734 1.36848H15.9246C15.976 1.36848 16.0253 1.3889 16.0616 1.42524C16.098 1.46159 16.1184 1.51088 16.1184 1.56228V6.21344ZM6.62225 9.50801H1.97109C1.6113 9.50801 1.26625 9.65094 1.01184 9.90535C0.757428 10.1598 0.614502 10.5048 0.614502 10.8646V15.5158C0.614502 15.8756 0.757428 16.2206 1.01184 16.475C1.26625 16.7294 1.6113 16.8724 1.97109 16.8724H6.62225C6.8004 16.8724 6.97681 16.8373 7.1414 16.7691C7.30599 16.7009 7.45554 16.601 7.58151 16.475C7.70748 16.349 7.8074 16.1995 7.87558 16.0349C7.94375 15.8703 7.97884 15.6939 7.97884 15.5158V10.8646C7.97884 10.6865 7.94375 10.51 7.87558 10.3455C7.8074 10.1809 7.70748 10.0313 7.58151 9.90535C7.45554 9.77938 7.30599 9.67945 7.1414 9.61128C6.97681 9.5431 6.8004 9.50801 6.62225 9.50801ZM6.81605 15.5158C6.81605 15.5672 6.79563 15.6165 6.75929 15.6528C6.72295 15.6891 6.67365 15.7096 6.62225 15.7096H1.97109C1.91969 15.7096 1.8704 15.6891 1.83405 15.6528C1.79771 15.6165 1.77729 15.5672 1.77729 15.5158V10.8646C1.77729 10.8132 1.79771 10.7639 1.83405 10.7276C1.8704 10.6912 1.91969 10.6708 1.97109 10.6708H6.62225C6.67365 10.6708 6.72295 10.6912 6.75929 10.7276C6.79563 10.7639 6.81605 10.8132 6.81605 10.8646V15.5158ZM15.9246 9.50801H11.2734C10.9136 9.50801 10.5686 9.65094 10.3142 9.90535C10.0598 10.1598 9.91683 10.5048 9.91683 10.8646V15.5158C9.91683 15.8756 10.0598 16.2206 10.3142 16.475C10.5686 16.7294 10.9136 16.8724 11.2734 16.8724H15.9246C16.2844 16.8724 16.6294 16.7294 16.8838 16.475C17.1382 16.2206 17.2812 15.8756 17.2812 15.5158V10.8646C17.2812 10.5048 17.1382 10.1598 16.8838 9.90535C16.6294 9.65094 16.2844 9.50801 15.9246 9.50801ZM16.1184 15.5158C16.1184 15.5672 16.098 15.6165 16.0616 15.6528C16.0253 15.6891 15.976 15.7096 15.9246 15.7096H11.2734C11.222 15.7096 11.1727 15.6891 11.1364 15.6528C11.1 15.6165 11.0796 15.5672 11.0796 15.5158V10.8646C11.0796 10.8132 11.1 10.7639 11.1364 10.7276C11.1727 10.6912 11.222 10.6708 11.2734 10.6708H15.9246C15.976 10.6708 16.0253 10.6912 16.0616 10.7276C16.098 10.7639 16.1184 10.8132 16.1184 10.8646V15.5158Z" fill="#7962D5"/>
</svg>
