<svg width="16" height="17" viewBox="0 0 16 17" fill="none" xmlns="http://www.w3.org/2000/svg">
<path d="M15.8891 9.06079C15.6731 9.06079 15.466 9.14659 15.3133 9.29931C15.1606 9.45203 15.0748 9.65916 15.0748 9.87514V14.7612C15.0748 14.9772 14.989 15.1843 14.8362 15.3371C14.6835 15.4898 14.4764 15.5756 14.2604 15.5756H2.85955C2.64357 15.5756 2.43643 15.4898 2.28372 15.3371C2.131 15.1843 2.0452 14.9772 2.0452 14.7612V3.36036C2.0452 3.14438 2.131 2.93725 2.28372 2.78453C2.43643 2.63181 2.64357 2.54601 2.85955 2.54601H7.74563C7.96161 2.54601 8.16874 2.46022 8.32146 2.3075C8.47418 2.15478 8.55998 1.94765 8.55998 1.73167C8.55998 1.51569 8.47418 1.30856 8.32146 1.15584C8.16874 1.00312 7.96161 0.91732 7.74563 0.91732H2.85955C2.21161 0.91732 1.59021 1.17471 1.13205 1.63287C0.673895 2.09103 0.416504 2.71243 0.416504 3.36036V14.7612C0.416504 15.4092 0.673895 16.0306 1.13205 16.4887C1.59021 16.9469 2.21161 17.2043 2.85955 17.2043H14.2604C14.9083 17.2043 15.5297 16.9469 15.9879 16.4887C16.4461 16.0306 16.7034 15.4092 16.7034 14.7612V9.87514C16.7034 9.65916 16.6177 9.45203 16.4649 9.29931C16.3122 9.14659 16.1051 9.06079 15.8891 9.06079ZM3.67389 9.6797V13.1325C3.67389 13.3485 3.75969 13.5556 3.91241 13.7084C4.06513 13.8611 4.27226 13.9469 4.48824 13.9469H7.94107C8.04825 13.9475 8.15449 13.927 8.25371 13.8864C8.35292 13.8459 8.44317 13.7862 8.51926 13.7107L14.1545 8.06729L16.4673 5.8034C16.5436 5.7277 16.6042 5.63763 16.6455 5.5384C16.6869 5.43916 16.7082 5.33272 16.7082 5.22522C16.7082 5.11771 16.6869 5.01127 16.6455 4.91204C16.6042 4.8128 16.5436 4.72273 16.4673 4.64703L13.0145 1.15348C12.9388 1.07715 12.8487 1.01657 12.7494 0.975227C12.6502 0.933883 12.5438 0.912598 12.4363 0.912598C12.3288 0.912598 12.2223 0.933883 12.1231 0.975227C12.0239 1.01657 11.9338 1.07715 11.8581 1.15348L9.56162 3.45808L3.91005 9.10151C3.83458 9.1776 3.77487 9.26784 3.73434 9.36706C3.69381 9.46628 3.67327 9.57252 3.67389 9.6797ZM12.4363 2.8799L14.7409 5.1845L13.5845 6.34087L11.2799 4.03627L12.4363 2.8799ZM5.30259 10.0136L10.1317 5.1845L12.4363 7.4891L7.60719 12.3182H5.30259V10.0136Z" fill="white"/>
</svg>
