<?xml version="1.0" encoding="utf-8"?>
<svg viewBox="0 0 32 32" xmlns="http://www.w3.org/2000/svg">
  <rect x="4.671" y="-23.596" width="22.25" height="1.789" style="fill: rgb(216, 216, 216); stroke-linecap: round; stroke-miterlimit: 1; stroke: rgb(255, 255, 255); stroke-width: 3px; paint-order: fill;" transform="matrix(1, 0, 0, -1, 3.552713678800501e-15, 3.552713678800501e-15)"/>
  <rect x="4.741" y="-17.794" width="22.25" height="1.789" style="fill: rgb(216, 216, 216); stroke-linecap: round; stroke-miterlimit: 1; stroke: rgb(255, 255, 255); stroke-width: 3px; paint-order: fill;" transform="matrix(1, 0, 0, -1, 3.552713678800501e-15, 3.552713678800501e-15)"/>
  <rect x="5.163" y="-20.644" width="22.25" height="1.789" style="fill: rgb(216, 216, 216); stroke-linecap: round; stroke-miterlimit: 1; stroke: rgb(255, 255, 255); stroke-width: 3px; paint-order: fill;" transform="matrix(1, 0, 0, -1, 3.552713678800501e-15, 3.552713678800501e-15)"/>
  <rect x="4.565" y="-9.931" width="22.25" height="1.789" style="fill: rgb(216, 216, 216); stroke-linecap: round; stroke-miterlimit: 1; stroke: rgb(255, 255, 255); stroke-width: 3px; paint-order: fill;" transform="matrix(1, 0, 0, -1, 3.552713678800501e-15, 3.552713678800501e-15)"/>
  <rect x="4.799" y="-15.599" width="22.25" height="1.789" style="fill: rgb(216, 216, 216); stroke-linecap: round; stroke-miterlimit: 1; stroke: rgb(255, 255, 255); stroke-width: 3px; paint-order: fill;" transform="matrix(1, 0, 0, -1, 3.552713678800501e-15, 3.552713678800501e-15)"/>
  <rect x="4.799" y="-13.939" width="22.25" height="1.789" style="fill: rgb(216, 216, 216); stroke-linecap: round; stroke-miterlimit: 1; stroke: rgb(255, 255, 255); stroke-width: 3px; paint-order: fill;" transform="matrix(1, 0, 0, -1, 3.552713678800501e-15, 3.552713678800501e-15)"/>
  <rect x="4.725" y="-12.438" width="22.25" height="1.789" style="fill: rgb(216, 216, 216); stroke-linecap: round; stroke-miterlimit: 1; stroke: rgb(255, 255, 255); stroke-width: 3px; paint-order: fill;" transform="matrix(1, 0, 0, -1, 3.552713678800501e-15, 3.552713678800501e-15)"/>
  <path d="M 26.534 6.309 L 5.144 6.309 C 3.781 6.309 2.676 7.414 2.676 8.777 L 2.676 23.585 C 2.676 24.948 3.781 26.053 5.144 26.053 L 26.534 26.053 C 27.897 26.053 29.002 24.948 29.002 23.585 L 29.002 8.777 C 29.002 7.414 27.897 6.309 26.534 6.309 Z M 25.941 7.954 L 15.839 15.169 L 5.736 7.954 L 25.941 7.954 Z M 27.356 23.585 C 27.356 24.039 26.988 24.408 26.534 24.408 L 5.144 24.408 C 4.69 24.408 4.321 24.039 4.321 23.585 L 4.321 8.966 L 15.362 16.847 C 15.647 17.051 16.03 17.051 16.316 16.847 L 27.356 8.966 L 27.356 23.585 Z" style="" transform="matrix(1, 0, 0, 1, 3.552713678800501e-15, 3.552713678800501e-15)"/>
</svg>