<svg width="17" height="21" viewBox="0 0 17 21" fill="none" xmlns="http://www.w3.org/2000/svg">
<path d="M5.23633 9.5H7.23633V5.5H5.23633V9.5ZM8.23633 9.5H10.2363V5.5H8.23633V9.5ZM11.2363 9.5H13.2363V5.5H11.2363V9.5ZM2.23633 20.5C1.68633 20.5 1.21566 20.3043 0.824328 19.913C0.432995 19.5217 0.236995 19.0507 0.236328 18.5V6.5L6.23633 0.5H14.2363C14.7863 0.5 15.2573 0.696 15.6493 1.088C16.0413 1.48 16.237 1.95067 16.2363 2.5V18.5C16.2363 19.05 16.0407 19.521 15.6493 19.913C15.258 20.305 14.787 20.5007 14.2363 20.5H2.23633ZM2.23633 18.5H14.2363V2.5H7.08633L2.23633 7.35V18.5Z" fill="#D9D9D9"/>
</svg>
