<svg width="24" height="24" viewBox="0 0 24 24" fill="none" xmlns="http://www.w3.org/2000/svg">
<path fill-rule="evenodd" clip-rule="evenodd"  d="M18.0459 3.70479L16.5808 1.9889V2.94014C16.581 3.14287 16.6499 3.33723 16.7723 3.48058C16.8947 3.62393 17.0606 3.70456 17.2337 3.70479H18.0459ZM16.0794 1.90735e-05L16.0834 0C16.2154 0 16.3419 0.0613748 16.4352 0.170623L19.5984 3.87539C19.6679 3.95686 19.7153 4.06066 19.7345 4.17366C19.7412 4.21317 19.7444 4.25319 19.744 4.29308V6.60128H22.0648C22.5779 6.60196 23.0698 6.84096 23.4326 7.26587C23.7953 7.69077 23.9994 8.26687 24 8.86778V18.9718C23.9994 19.5727 23.7954 20.1488 23.4326 20.5737C23.0698 20.9986 22.5779 21.2376 22.0648 21.2383H19.744V21.7335C19.7434 22.3344 19.5394 22.9105 19.1766 23.3354C18.8138 23.7603 18.3219 23.9993 17.8088 24H6.19121C5.67814 23.9993 5.18625 23.7603 4.82345 23.3354C4.46066 22.9105 4.25658 22.3344 4.256 21.7335V21.2383H1.93521C1.42214 21.2376 0.930251 20.9986 0.567456 20.5737C0.20466 20.1488 0.000584492 19.5727 0 18.9718V8.86778C0.000584492 8.26687 0.20466 7.69077 0.567456 7.26587C0.930251 6.84097 1.42214 6.60196 1.93521 6.60128H4.25598V2.26654C4.25656 1.66563 4.46063 1.08952 4.82343 0.664608C5.18624 0.239698 5.67813 0.000689758 6.19121 1.90735e-05H16.0794ZM4.75335 7.76633H1.93521C1.68587 7.76666 1.44683 7.88281 1.27052 8.0893C1.09421 8.29579 0.995034 8.57576 0.994747 8.86778V18.9718C0.995031 19.2638 1.09421 19.5437 1.27052 19.7502C1.44682 19.9567 1.68587 20.0729 1.93521 20.0732H4.256V15.8495H3.43056C3.29864 15.8495 3.17214 15.7881 3.07886 15.6789C2.98559 15.5696 2.93318 15.4215 2.93318 15.267C2.93318 15.1125 2.98559 14.9643 3.07886 14.8551C3.17214 14.7458 3.29864 14.6845 3.43056 14.6845H4.75337H19.2467H20.5695C20.7014 14.6845 20.8279 14.7458 20.9212 14.8551C21.0144 14.9643 21.0668 15.1125 21.0668 15.267C21.0668 15.4215 21.0144 15.5696 20.9212 15.6789C20.8279 15.7881 20.7014 15.8495 20.5694 15.8495H19.744V20.0732H22.0648C22.3141 20.0729 22.5532 19.9567 22.7295 19.7502C22.9058 19.5437 23.005 19.2638 23.0052 18.9718V8.86778C23.005 8.57576 22.9058 8.2958 22.7295 8.08931C22.5532 7.88282 22.3141 7.76667 22.0648 7.76633L19.2467 7.76633L4.7534 7.76633H4.75335ZM5.25074 21.7335V15.8495H18.7493V21.7335C18.749 22.0255 18.6498 22.3055 18.4735 22.512C18.2972 22.7185 18.0582 22.8346 17.8088 22.835H6.19121C5.94187 22.8346 5.70283 22.7185 5.52652 22.512C5.35021 22.3055 5.25103 22.0255 5.25074 21.7335ZM17.2337 4.86984H18.7493V6.60128H5.25074V2.26654C5.25102 1.97451 5.3502 1.69454 5.52651 1.48804C5.70282 1.28155 5.94187 1.1654 6.19121 1.16507H15.5861V2.94014C15.5866 3.45176 15.7603 3.94225 16.0692 4.30402C16.3781 4.66578 16.7969 4.86927 17.2337 4.86984ZM7.2165 18.6449H16.7835C16.9154 18.6449 17.0419 18.5835 17.1352 18.4742C17.2285 18.365 17.2809 18.2168 17.2809 18.0623C17.2809 17.9078 17.2285 17.7597 17.1352 17.6504C17.0419 17.5412 16.9154 17.4798 16.7835 17.4798H7.2165C7.08459 17.4798 6.95808 17.5412 6.8648 17.6504C6.77153 17.7597 6.71913 17.9078 6.71913 18.0623C6.71913 18.2168 6.77153 18.365 6.8648 18.4742C6.95808 18.5835 7.08459 18.6449 7.2165 18.6449ZM16.7835 21.2046H7.2165C7.08459 21.2046 6.95808 21.1432 6.8648 21.034C6.77153 20.9247 6.71913 20.7765 6.71913 20.622C6.71913 20.4675 6.77153 20.3194 6.8648 20.2101C6.95808 20.1009 7.08459 20.0395 7.2165 20.0395H16.7835C16.9154 20.0395 17.0419 20.1009 17.1352 20.2101C17.2285 20.3194 17.2809 20.4675 17.2809 20.622C17.2809 20.7765 17.2285 20.9247 17.1352 21.034C17.0419 21.1432 16.9154 21.2046 16.7835 21.2046ZM19.4943 12.3364C19.7275 12.5188 20.0015 12.6162 20.2819 12.6162C20.6577 12.6157 21.018 12.4406 21.2838 12.1294C21.5495 11.8181 21.699 11.3961 21.6995 10.9559C21.6995 10.6276 21.6163 10.3066 21.4606 10.0335C21.3048 9.76049 21.0834 9.54769 20.8244 9.42203C20.5653 9.29637 20.2803 9.26349 20.0053 9.32755C19.7303 9.39162 19.4777 9.54975 19.2795 9.78194C19.0812 10.0141 18.9462 10.31 18.8915 10.632C18.8368 10.9541 18.8649 11.2879 18.9722 11.5913C19.0795 11.8947 19.2612 12.154 19.4943 12.3364ZM20.047 10.5441C20.1165 10.4897 20.1983 10.4607 20.2819 10.4607C20.394 10.4609 20.5015 10.5131 20.5807 10.6059C20.66 10.6988 20.7046 10.8246 20.7047 10.9559C20.7047 11.0539 20.6799 11.1496 20.6335 11.2311C20.587 11.3125 20.521 11.376 20.4437 11.4135C20.3664 11.451 20.2814 11.4608 20.1994 11.4416C20.1173 11.4225 20.042 11.3754 19.9829 11.3061C19.9237 11.2368 19.8835 11.1486 19.8672 11.0525C19.8508 10.9565 19.8592 10.8569 19.8912 10.7664C19.9232 10.6759 19.9774 10.5986 20.047 10.5441Z" fill="#ffffff"/>
</svg>
