<svg width="32" height="32" viewBox="0 0 32 32" fill="none" xmlns="http://www.w3.org/2000/svg">
<path d="M31.117 12.9806H29.8752V12.9166H16.0002V19.0833H24.7129C23.4418 22.673 20.0262 25.2499 16.0002 25.2499C10.8919 25.2499 6.75016 21.1082 6.75016 15.9999C6.75016 10.8916 10.8919 6.74992 16.0002 6.74992C18.3581 6.74992 20.5034 7.63946 22.1368 9.09248L26.4974 4.73188C23.744 2.16577 20.0609 0.583252 16.0002 0.583252C7.48631 0.583252 0.583496 7.48606 0.583496 15.9999C0.583496 24.5138 7.48631 31.4166 16.0002 31.4166C24.514 31.4166 31.4168 24.5138 31.4168 15.9999C31.4168 14.9662 31.3105 13.9572 31.117 12.9806Z" fill="#FFC107"/>
<path d="M2.36133 8.82423L7.42647 12.5389C8.79701 9.14567 12.1162 6.74992 16.0005 6.74992C18.3584 6.74992 20.5037 7.63946 22.1371 9.09248L26.4977 4.73188C23.7442 2.16577 20.0612 0.583252 16.0005 0.583252C10.0789 0.583252 4.94362 3.92636 2.36133 8.82423Z" fill="#FF3D00"/>
<path d="M16.0001 31.4167C19.9822 31.4167 23.6005 29.8928 26.3362 27.4145L21.5647 23.3769C19.9649 24.5936 18.01 25.2516 16.0001 25.25C11.9902 25.25 8.58543 22.6932 7.30277 19.125L2.27539 22.9984C4.82685 27.9911 10.0084 31.4167 16.0001 31.4167Z" fill="#4CAF50"/>
<path d="M31.1168 12.9807H29.875V12.9167H16V19.0834H24.7127C24.1047 20.7919 23.0095 22.2848 21.5623 23.3777L21.5646 23.3762L26.3361 27.4138C25.9985 27.7206 31.4167 23.7084 31.4167 16.0001C31.4167 14.9664 31.3103 13.9574 31.1168 12.9807Z" fill="#1976D2"/>
</svg>
