<svg width="18" height="23" viewBox="0 0 18 23" fill="none" xmlns="http://www.w3.org/2000/svg">
<path d="M2.17353 8.51696C2.1745 7.52931 2.38974 6.55367 2.80433 5.65764C3.21893 4.76161 3.82296 3.96661 4.57459 3.32772C5.32623 2.68882 6.20749 2.22131 7.15732 1.95756C8.10715 1.69381 9.10286 1.64014 10.0754 1.80026C11.048 1.96037 11.9743 2.33045 12.79 2.88486C13.6056 3.43927 14.2913 4.16474 14.7994 5.01103C15.3076 5.85732 15.626 6.80419 15.7327 7.78604C15.8394 8.76789 15.7318 9.76125 15.4174 10.6973C15.9703 10.8618 16.4876 11.1281 16.9431 11.4826C17.2944 10.5335 17.4737 9.5292 17.4726 8.51696C17.4726 3.81304 13.6674 0 8.97311 0C4.27885 0 0.473633 3.81304 0.473633 8.51696C0.473633 10.0432 0.873958 11.4749 1.57516 12.7141C1.99847 12.3285 2.4884 12.0234 3.02093 11.8139C2.46334 10.805 2.17169 9.67025 2.17353 8.51696ZM14.4978 8.51696C14.4978 9.1898 14.3779 9.83283 14.1586 10.429L12.8004 10.1658V8.51611C12.8003 7.99767 12.6952 7.48464 12.4915 7.00807C12.2879 6.5315 11.9898 6.1013 11.6154 5.74349C11.241 5.38568 10.798 5.1077 10.3133 4.92638C9.82864 4.74506 9.31227 4.66416 8.79547 4.68859C7.78668 4.73547 6.83734 5.18024 6.15456 5.92585C5.47178 6.67146 5.11099 7.6574 5.15089 8.66856V11.509C4.87555 11.4836 4.59849 11.4831 4.32305 11.5073C3.85934 10.7834 3.57034 9.96121 3.47898 9.10593C3.38762 8.25064 3.49641 7.38579 3.79672 6.57997C4.09702 5.77416 4.58059 5.04955 5.20905 4.46363C5.83752 3.87771 6.59359 3.4466 7.41729 3.2045C8.241 2.9624 9.10967 2.91596 9.9544 3.06888C10.7991 3.22179 11.5967 3.56986 12.2838 4.08545C12.9709 4.60105 13.5286 5.26999 13.9128 6.03922C14.297 6.80844 14.4978 7.65679 14.4978 8.51696ZM8.12401 8.51696C8.12401 8.29108 8.21356 8.07445 8.37295 7.91472C8.53235 7.755 8.74854 7.66527 8.97396 7.66527C9.19938 7.66527 9.41557 7.755 9.57496 7.91472C9.73436 8.07445 9.82391 8.29108 9.82391 8.51696V11.9237C9.82386 12.1216 9.89255 12.3133 10.0182 12.4659C10.1438 12.6185 10.3185 12.7225 10.5124 12.7601L14.3966 13.513C14.6266 13.5577 14.8449 13.6495 15.0378 13.7827C15.2307 13.9158 15.3941 14.0876 15.5176 14.287C15.6412 14.4865 15.7223 14.7094 15.7558 14.9417C15.7893 15.174 15.7745 15.4108 15.7123 15.6371L14.4204 20.3428C14.3743 20.5112 14.2777 20.6613 14.1436 20.7728C14.0095 20.8843 13.8444 20.9518 13.6708 20.9662L9.62502 21.2958C9.62502 21.2958 9.61992 21.2941 9.61312 21.289C9.59076 21.2722 9.57389 21.249 9.56467 21.2226C8.90001 19.3889 7.28681 17.1898 3.11272 15.6397C3.18661 15.417 3.30562 15.2121 3.46227 15.0377C3.61893 14.8632 3.80986 14.7231 4.02309 14.6261C4.23632 14.5291 4.46725 14.4773 4.7014 14.474C4.93555 14.4706 5.16786 14.5158 5.38378 14.6066L6.94513 15.2641C7.07436 15.3186 7.21504 15.3402 7.35464 15.3271C7.49423 15.3139 7.62841 15.2663 7.7452 15.1886C7.862 15.1108 7.95778 15.0053 8.02402 14.8815C8.09027 14.7577 8.12491 14.6193 8.12486 14.4788L8.12401 8.51696ZM8.97396 5.96187C8.2977 5.96187 7.64914 6.23107 7.17095 6.71024C6.69276 7.18941 6.42412 7.83931 6.42412 8.51696V13.197L6.04249 13.0361C5.59572 12.848 5.11399 12.7578 4.62959 12.7716C4.1452 12.7853 3.66933 12.9026 3.23389 13.1157C2.79846 13.3288 2.41351 13.6327 2.10485 14.0071C1.7962 14.3814 1.57097 14.8175 1.44427 15.2862L1.36778 15.569C1.28389 15.8829 1.32167 16.2169 1.47351 16.504C1.62535 16.791 1.88 17.0099 2.18628 17.1165C6.21503 18.5244 7.4789 20.4586 7.96677 21.8034C8.22176 22.5052 8.91531 23.0639 9.76271 22.9941L13.8085 22.6636C14.3297 22.6211 14.8253 22.419 15.228 22.0848C15.6308 21.7505 15.9212 21.3003 16.06 20.795L17.3519 16.0885C17.4762 15.6358 17.5057 15.1622 17.4386 14.6975C17.3716 14.2327 17.2094 13.7869 16.9622 13.388C16.715 12.9891 16.3882 12.6457 16.0023 12.3793C15.6164 12.113 15.1797 11.9295 14.7196 11.8403L11.5238 11.2211V8.51696C11.5238 7.83931 11.2552 7.18941 10.777 6.71024C10.2988 6.23107 9.65022 5.96187 8.97396 5.96187Z" fill="#D9D9D9"/>
</svg>
