<svg width="15" height="19" viewBox="0 0 15 19" fill="none" xmlns="http://www.w3.org/2000/svg">
<path d="M14.1667 1.47921C14.1667 1.17531 14.0664 0.883866 13.8878 0.668981C13.7092 0.454096 13.467 0.333374 13.2144 0.333374C12.9618 0.333374 12.7195 0.454096 12.5409 0.668981C12.3623 0.883866 12.262 1.17531 12.262 1.47921L12.262 17.5209C12.262 17.8248 12.3623 18.1162 12.5409 18.3311C12.7195 18.546 12.9618 18.6667 13.2144 18.6667C13.467 18.6667 13.7092 18.546 13.8878 18.3311C14.0664 18.1162 14.1667 17.8248 14.1667 17.5209L14.1667 1.47921ZM8.45246 6.06254C8.45246 5.75865 8.35212 5.4672 8.17352 5.25231C7.99491 5.03743 7.75267 4.91671 7.50008 4.91671C7.24749 4.91671 7.00525 5.03743 6.82665 5.25231C6.64804 5.4672 6.5477 5.75865 6.5477 6.06254L6.5477 17.5209C6.5477 17.8248 6.64804 18.1162 6.82665 18.3311C7.00525 18.546 7.24749 18.6667 7.50008 18.6667C7.75267 18.6667 7.99491 18.546 8.17352 18.3311C8.35212 18.1162 8.45246 17.8248 8.45246 17.5209L8.45246 6.06254ZM1.7858 9.50004C2.03838 9.50004 2.28063 9.62076 2.45923 9.83565C2.63784 10.0505 2.73818 10.342 2.73818 10.6459V17.5209C2.73818 17.8248 2.63784 18.1162 2.45923 18.3311C2.28063 18.546 2.03838 18.6667 1.7858 18.6667C1.53321 18.6667 1.29097 18.546 1.11236 18.3311C0.933754 18.1162 0.833415 17.8248 0.833415 17.5209V10.6459C0.833415 10.342 0.933754 10.0505 1.11236 9.83565C1.29097 9.62076 1.53321 9.50004 1.7858 9.50004Z" fill="#7962D5"/>
</svg>
