<svg width="32" height="32" viewBox="0 0 32 32" fill="none" xmlns="http://www.w3.org/2000/svg">
<path d="M24.2344 0.5H7.76562C3.75293 0.5 0.5 3.75293 0.5 7.76562V24.2344C0.5 28.2471 3.75293 31.5 7.76562 31.5H24.2344C28.2471 31.5 31.5 28.2471 31.5 24.2344V7.76562C31.5 3.75293 28.2471 0.5 24.2344 0.5Z" fill="url(#paint0_radial_213_189)"/>
<path d="M24.2344 0.5H7.76562C3.75293 0.5 0.5 3.75293 0.5 7.76562V24.2344C0.5 28.2471 3.75293 31.5 7.76562 31.5H24.2344C28.2471 31.5 31.5 28.2471 31.5 24.2344V7.76562C31.5 3.75293 28.2471 0.5 24.2344 0.5Z" fill="url(#paint1_radial_213_189)"/>
<path d="M16.0011 3.89062C12.7124 3.89062 12.2996 3.90504 11.008 3.96377C9.71887 4.02286 8.83888 4.2269 8.06896 4.52637C7.27241 4.83564 6.59683 5.24942 5.92379 5.9227C5.25014 6.59586 4.83637 7.27144 4.52613 8.06763C4.22581 8.83779 4.02153 9.71814 3.96352 11.0067C3.90576 12.2984 3.89062 12.7113 3.89062 16.0001C3.89062 19.2889 3.90516 19.7004 3.96377 20.992C4.0231 22.2811 4.22714 23.1611 4.52637 23.931C4.83588 24.7276 5.24966 25.4032 5.92294 26.0762C6.59586 26.7499 7.27144 27.1646 8.06739 27.4739C8.83791 27.7733 9.71802 27.9774 11.0069 28.0365C12.2986 28.0952 12.7111 28.1096 15.9996 28.1096C19.2887 28.1096 19.7001 28.0952 20.9917 28.0365C22.2809 27.9774 23.1618 27.7733 23.9324 27.4739C24.7286 27.1646 25.4032 26.7499 26.076 26.0762C26.7496 25.4032 27.1633 24.7276 27.4736 23.9314C27.7713 23.1611 27.9757 22.2809 28.0362 20.9922C28.0942 19.7006 28.1094 19.2889 28.1094 16.0001C28.1094 12.7113 28.0942 12.2986 28.0362 11.0069C27.9757 9.71778 27.7713 8.83791 27.4736 8.068C27.1633 7.27144 26.7496 6.59586 26.076 5.9227C25.4024 5.24918 24.7288 4.8354 23.9316 4.52649C23.1597 4.2269 22.2792 4.02274 20.99 3.96377C19.6983 3.90504 19.2871 3.89062 15.9973 3.89062H16.0011ZM14.9148 6.07286C15.2372 6.07237 15.597 6.07286 16.0011 6.07286C19.2344 6.07286 19.6176 6.08448 20.8944 6.14248C22.075 6.19649 22.7159 6.39375 23.1427 6.55953C23.7079 6.77895 24.1107 7.04136 24.5343 7.46531C24.9582 7.88914 25.2204 8.29275 25.4405 8.85789C25.6062 9.28414 25.8038 9.92497 25.8575 11.1056C25.9155 12.3822 25.9281 12.7656 25.9281 15.9973C25.9281 19.2291 25.9155 19.6126 25.8575 20.889C25.8035 22.0697 25.6062 22.7105 25.4405 23.1369C25.221 23.702 24.9582 24.1044 24.5343 24.528C24.1105 24.9519 23.7081 25.2141 23.1427 25.4337C22.7163 25.6002 22.075 25.797 20.8944 25.851C19.6178 25.909 19.2344 25.9216 16.0011 25.9216C12.7676 25.9216 12.3844 25.909 11.1079 25.851C9.92727 25.7965 9.28644 25.5992 8.85922 25.4334C8.2942 25.2139 7.89047 24.9516 7.46664 24.5278C7.04282 24.104 6.78053 23.7013 6.5605 23.1359C6.39472 22.7096 6.19722 22.0687 6.14345 20.8881C6.08545 19.6115 6.07382 19.2281 6.07382 15.9943C6.07382 12.7606 6.08545 12.3792 6.14345 11.1026C6.19746 9.92194 6.39472 9.28111 6.5605 8.85426C6.78004 8.28911 7.04282 7.88551 7.46677 7.46168C7.89059 7.03785 8.2942 6.77544 8.85934 6.55554C9.2862 6.38903 9.92727 6.19225 11.1079 6.138C12.225 6.08751 12.6579 6.07237 14.9148 6.06983V6.07286ZM22.4651 8.0835C21.6628 8.0835 21.0119 8.73377 21.0119 9.53614C21.0119 10.3384 21.6628 10.9893 22.4651 10.9893C23.2673 10.9893 23.9182 10.3384 23.9182 9.53614C23.9182 8.73389 23.2673 8.08301 22.4651 8.08301V8.0835ZM16.0011 9.78135C12.5669 9.78135 9.78244 12.5658 9.78244 16.0001C9.78244 19.4345 12.5669 22.2176 16.0011 22.2176C19.4354 22.2176 22.2189 19.4345 22.2189 16.0001C22.2189 12.5659 19.4352 9.78135 16.0008 9.78135H16.0011ZM16.0011 11.9636C18.2303 11.9636 20.0376 13.7707 20.0376 16.0001C20.0376 18.2293 18.2303 20.0367 16.0011 20.0367C13.7718 20.0367 11.9647 18.2293 11.9647 16.0001C11.9647 13.7707 13.7718 11.9636 16.0011 11.9636Z" fill="white"/>
<defs>
<radialGradient id="paint0_radial_213_189" cx="0" cy="0" r="1" gradientUnits="userSpaceOnUse" gradientTransform="translate(8.73437 33.8876) rotate(-90) scale(30.7233 28.5751)">
<stop stop-color="#FFDD55"/>
<stop offset="0.1" stop-color="#FFDD55"/>
<stop offset="0.5" stop-color="#FF543E"/>
<stop offset="1" stop-color="#C837AB"/>
</radialGradient>
<radialGradient id="paint1_radial_213_189" cx="0" cy="0" r="1" gradientUnits="userSpaceOnUse" gradientTransform="translate(-4.69262 2.73309) rotate(78.681) scale(13.7335 56.6099)">
<stop stop-color="#3771C8"/>
<stop offset="0.128" stop-color="#3771C8"/>
<stop offset="1" stop-color="#6600FF" stop-opacity="0"/>
</radialGradient>
</defs>
</svg>
