<svg width="32" height="32" viewBox="0 0 32 32" fill="none" xmlns="http://www.w3.org/2000/svg">
<g clip-path="url(#clip0_213_170)">
<path d="M24.5 0H7.5C3.35786 0 0 3.35786 0 7.5V24.5C0 28.6421 3.35786 32 7.5 32H24.5C28.6421 32 32 28.6421 32 24.5V7.5C32 3.35786 28.6421 0 24.5 0Z" fill="white"/>
<path d="M24.5 0H7.5C3.35786 0 0 3.35786 0 7.5V24.5C0 28.6421 3.35786 32 7.5 32H24.5C28.6421 32 32 28.6421 32 24.5V7.5C32 3.35786 28.6421 0 24.5 0Z" fill="#0A66C2"/>
<path d="M22.4866 26H25.5762C25.6882 26 25.7955 25.9555 25.8747 25.8762C25.9539 25.7969 25.9984 25.6893 25.9984 25.5771L26 19.0379C26 15.6201 25.2648 12.993 21.2777 12.993C19.762 12.9365 18.3327 13.7192 17.5614 15.0261C17.5576 15.0325 17.5519 15.0374 17.545 15.0402C17.5382 15.043 17.5306 15.0434 17.5235 15.0415C17.5164 15.0396 17.5101 15.0354 17.5056 15.0295C17.5011 15.0237 17.4986 15.0165 17.4986 15.0091V13.7314C17.4986 13.6193 17.4541 13.5117 17.3749 13.4324C17.2957 13.353 17.1883 13.3085 17.0763 13.3085H14.1443C14.0323 13.3085 13.9249 13.353 13.8458 13.4324C13.7666 13.5117 13.7221 13.6193 13.7221 13.7314V25.5765C13.7221 25.6887 13.7666 25.7963 13.8458 25.8756C13.9249 25.9549 14.0323 25.9995 14.1443 25.9995H17.2337C17.3457 25.9995 17.4531 25.9549 17.5323 25.8756C17.6115 25.7963 17.6559 25.6887 17.6559 25.5765V19.7213C17.6559 18.0658 17.9694 16.4624 20.0184 16.4624C22.0382 16.4624 22.0644 18.3569 22.0644 19.8286V25.577C22.0644 25.6892 22.1088 25.7968 22.188 25.8761C22.2672 25.9554 22.3746 26 22.4866 26ZM7 9.28696C7 10.5415 8.03096 11.5737 9.28338 11.5737C10.5355 11.5736 11.5658 10.5407 11.5658 9.28643C11.5656 8.03213 10.5352 7 9.28296 7C8.03043 7 7 8.03245 7 9.28696ZM7.73456 26H10.8281C10.9401 26 11.0475 25.9554 11.1266 25.8761C11.2058 25.7968 11.2503 25.6892 11.2503 25.577V13.7314C11.2503 13.6193 11.2058 13.5117 11.1266 13.4324C11.0475 13.353 10.9401 13.3085 10.8281 13.3085H7.73456C7.62258 13.3085 7.51519 13.353 7.436 13.4324C7.35682 13.5117 7.31234 13.6193 7.31234 13.7314V25.577C7.31234 25.6892 7.35682 25.7968 7.436 25.8761C7.51519 25.9554 7.62258 26 7.73456 26Z" fill="white"/>
</g>
<defs>
<clipPath id="clip0_213_170">
<rect width="32" height="32" rx="16" fill="white"/>
</clipPath>
</defs>
</svg>
