<svg width="45" height="45" viewBox="0 0 45 45" fill="none" xmlns="http://www.w3.org/2000/svg">
<rect width="45" height="45" rx="10" fill="#7962D5"/>
<g clip-path="url(#clip0_213_232)">
<path d="M24.6664 40.1C28.2734 35.5859 36.5 24.6453 36.5 18.5C36.5 11.0469 30.4531 5 23 5C15.5469 5 9.5 11.0469 9.5 18.5C9.5 24.6453 17.7266 35.5859 21.3336 40.1C22.1984 41.1758 23.8016 41.1758 24.6664 40.1ZM23 14C24.1935 14 25.3381 14.4741 26.182 15.318C27.0259 16.1619 27.5 17.3065 27.5 18.5C27.5 19.6935 27.0259 20.8381 26.182 21.682C25.3381 22.5259 24.1935 23 23 23C21.8065 23 20.6619 22.5259 19.818 21.682C18.9741 20.8381 18.5 19.6935 18.5 18.5C18.5 17.3065 18.9741 16.1619 19.818 15.318C20.6619 14.4741 21.8065 14 23 14Z" fill="#F5F5F5"/>
</g>
<defs>
<clipPath id="clip0_213_232">
<rect width="27" height="36" fill="white" transform="translate(9.5 5)"/>
</clipPath>
</defs>
</svg>
