<svg width="32" height="32" viewBox="0 0 32 32" fill="none" xmlns="http://www.w3.org/2000/svg">
<rect x="4.5" y="4.5" width="24" height="24" fill="white"/>
<g clip-path="url(#clip0_78_656)">
<path d="M7.32648 0.500018C6.42944 0.497974 5.54083 0.673151 4.71169 1.01549C3.88254 1.35783 3.12919 1.86058 2.49488 2.49488C1.86058 3.12919 1.35783 3.88254 1.01549 4.71169C0.673151 5.54083 0.497974 6.42944 0.500018 7.32648V24.6736C0.497974 25.5706 0.673151 26.4592 1.01549 27.2883C1.35783 28.1175 1.86058 28.8708 2.49488 29.5051C3.12919 30.1395 3.88254 30.6422 4.71169 30.9845C5.54083 31.3269 6.42944 31.5021 7.32648 31.5H24.6736C25.5706 31.5021 26.4592 31.3269 27.2883 30.9845C28.1175 30.6422 28.8708 30.1395 29.5051 29.5051C30.1395 28.8708 30.6422 28.1175 30.9845 27.2883C31.3269 26.4592 31.5021 25.5706 31.5 24.6736V7.32648C31.5021 6.42944 31.3269 5.54083 30.9845 4.71169C30.6422 3.88254 30.1395 3.12919 29.5051 2.49488C28.8708 1.86058 28.1175 1.35783 27.2883 1.01549C26.4592 0.673151 25.5706 0.497974 24.6736 0.500018H7.32648ZM16 5.8656C17.4944 5.8656 18.9741 6.11077 20.3547 6.58712C21.7352 7.06346 22.9896 7.76164 24.0462 8.64179C25.1028 9.52195 25.9409 10.5668 26.5126 11.7168C27.0844 12.8667 27.3785 14.0992 27.3783 15.3438C27.3779 17.8571 26.1789 20.2672 24.0451 22.0442C21.9113 23.8212 19.0175 24.8195 16 24.8195C14.9101 24.8181 13.8261 24.6863 12.7812 24.4281C11.4259 25.3264 9.84434 25.9475 8.1596 26.2429C9.02801 25.4035 9.70034 24.4627 10.1488 23.4594C8.46528 22.6186 7.07157 21.4294 6.10308 20.0074C5.13459 18.5853 4.62427 16.9788 4.62173 15.3438C4.62152 14.0992 4.91568 12.8667 5.4874 11.7168C6.05912 10.5668 6.89721 9.52195 7.9538 8.64179C9.01039 7.76164 10.2648 7.06346 11.6454 6.58712C13.026 6.11077 14.5057 5.8656 16 5.8656Z" fill="#49E965"/>
</g>
<defs>
<clipPath id="clip0_78_656">
<rect width="31" height="31" fill="white" transform="translate(0.5 0.5)"/>
</clipPath>
</defs>
</svg>
