<svg width="28" height="28" viewBox="0 0 28 28" fill="none" xmlns="http://www.w3.org/2000/svg">
<rect width="28" height="28" rx="4" fill="#00DE5E"/>
<path d="M10.797 5.8656C10.5263 5.21172 9.81268 4.86369 9.13068 5.05001L6.03706 5.89372C5.42537 6.06246 5 6.61791 5 7.25069C5 15.948 12.052 23 20.7493 23C21.3821 23 21.9375 22.5746 22.1063 21.9629L22.95 18.8693C23.1363 18.1873 22.7883 17.4737 22.1344 17.203L18.7595 15.7968C18.1865 15.5577 17.5221 15.723 17.1319 16.2046L15.7116 17.9377C13.2367 16.7671 11.2329 14.7633 10.0623 12.2884L11.7954 10.8716C12.277 10.4779 12.4422 9.81699 12.2032 9.24397L10.797 5.86911V5.8656Z" fill="white"/>
</svg>
