<svg width="23" height="22" viewBox="0 0 23 22" fill="none" xmlns="http://www.w3.org/2000/svg">
<path d="M2.7 2.2H7.111V0H0.5V6.6H2.7V2.2ZM2.7 15.4H0.5V22H7.111V19.8H2.7V15.4ZM20.3 19.8H15.9V22H22.5V15.4H20.3V19.8ZM15.9 2.2H20.3V6.6H22.5V0H15.9V2.2Z" fill="white"/>
<path d="M3.80029 9.90005H10.4003V3.30005H3.80029V9.90005ZM6.00029 5.50005H8.20029V7.70005H6.00029V5.50005ZM3.80029 18.7H10.4003V12.1H3.80029V18.7ZM6.00029 14.3H8.20029V16.5H6.00029V14.3ZM19.2003 3.30005H12.6003V9.90005H19.2003V3.30005ZM17.0003 7.70005H14.8003V5.50005H17.0003V7.70005ZM12.6113 12.1H14.8113V14.3H12.6113V12.1ZM14.8113 14.3H17.0113V16.5H14.8113V14.3ZM17.0113 16.5H19.2113V18.7H17.0113V16.5ZM17.0113 12.1H19.2113V14.3H17.0113V12.1Z" fill="white"/>
</svg>
