<svg width="12" height="21" viewBox="0 0 12 21" fill="none" xmlns="http://www.w3.org/2000/svg">
<path d="M0.93918 0.95395C0.657973 1.23524 0.5 1.6167 0.5 2.01445C0.5 2.4122 0.657973 2.79366 0.93918 3.07495L8.36418 10.5L0.93918 17.9249C0.665943 18.2079 0.514751 18.5868 0.518168 18.9801C0.521586 19.3733 0.67934 19.7496 0.957452 20.0277C1.23556 20.3058 1.61178 20.4635 2.00508 20.467C2.39837 20.4704 2.77728 20.3192 3.06018 20.0459L11.5457 11.5604C11.8269 11.2792 11.9849 10.8977 11.9849 10.5C11.9849 10.1022 11.8269 9.72074 11.5457 9.43945L3.06018 0.95395C2.77889 0.672744 2.39743 0.514771 1.99968 0.514771C1.60193 0.514771 1.22047 0.672744 0.93918 0.95395Z" fill="white"/>
</svg>
