<svg width="122" height="122" viewBox="0 0 122 122" fill="none" xmlns="http://www.w3.org/2000/svg">
<g clip-path="url(#clip0_94_4780)">
<path d="M10.1667 20.3333H30.5V10.1666H10.1667C7.4703 10.1666 4.88437 11.2378 2.97775 13.1444C1.07113 15.051 0 17.6369 0 20.3333L0 40.6666H10.1667V20.3333ZM111.833 10.1666H91.5V20.3333H111.833V40.6666H122V20.3333C122 17.6369 120.929 15.051 119.022 13.1444C117.116 11.2378 114.53 10.1666 111.833 10.1666ZM10.1667 81.3333H0V101.667C0 104.363 1.07113 106.949 2.97775 108.856C4.88437 110.762 7.4703 111.833 10.1667 111.833H30.5V101.667H10.1667V81.3333ZM111.833 101.667H91.5V111.833H111.833C114.53 111.833 117.116 110.762 119.022 108.856C120.929 106.949 122 104.363 122 101.667V81.3333H111.833V101.667ZM20.3333 40.6666V81.3333C20.3333 84.0297 21.4045 86.6156 23.3111 88.5222C25.2177 90.4288 27.8036 91.5 30.5 91.5H91.5C94.1964 91.5 96.7823 90.4288 98.6889 88.5222C100.596 86.6156 101.667 84.0297 101.667 81.3333V40.6666C101.667 37.9703 100.596 35.3843 98.6889 33.4777C96.7823 31.5711 94.1964 30.5 91.5 30.5H30.5C27.8036 30.5 25.2177 31.5711 23.3111 33.4777C21.4045 35.3843 20.3333 37.9703 20.3333 40.6666ZM30.5 81.3333V61H91.5V81.3333H30.5ZM91.5 40.6666V50.8333H30.5V40.6666H91.5Z" fill="black"/>
</g>
<defs>
<clipPath id="clip0_94_4780">
<rect width="122" height="122" fill="white"/>
</clipPath>
</defs>
</svg>
