<svg width="20" height="19" viewBox="0 0 20 19" fill="none" xmlns="http://www.w3.org/2000/svg">
<path d="M17.549 10.1037C17.3994 9.93648 17.317 9.72146 17.317 9.49882C17.317 9.27619 17.3994 9.06116 17.549 8.8939L18.7433 7.57408C18.8749 7.42988 18.9567 7.24844 18.9768 7.05578C18.9969 6.86313 18.9544 6.66917 18.8553 6.50173L16.9892 3.33049C16.8911 3.16324 16.7418 3.03067 16.5626 2.95167C16.3833 2.87268 16.1832 2.85129 15.9908 2.89055L14.2367 3.23884C14.0135 3.28414 13.7811 3.24763 13.5835 3.13619C13.3858 3.02474 13.2365 2.84608 13.1637 2.63392L12.5945 0.956648C12.532 0.774604 12.4127 0.616488 12.2536 0.504648C12.0946 0.392809 11.9038 0.332904 11.7082 0.3334H7.97596C7.77249 0.322968 7.57114 0.378243 7.40266 0.490783C7.23418 0.603323 7.10783 0.766942 7.04291 0.956648L6.5204 2.63392C6.44763 2.84608 6.29831 3.02474 6.10064 3.13619C5.90296 3.24763 5.6706 3.28414 5.4474 3.23884L3.64661 2.89055C3.46425 2.86524 3.27834 2.89351 3.1123 2.97179C2.94626 3.05008 2.80753 3.17489 2.71357 3.33049L0.84747 6.50173C0.745917 6.6673 0.700255 6.86017 0.717013 7.05277C0.733771 7.24537 0.812091 7.42784 0.940774 7.57408L2.12575 8.8939C2.27533 9.06116 2.35783 9.27619 2.35783 9.49882C2.35783 9.72146 2.27533 9.93648 2.12575 10.1037L0.940774 11.4236C0.812091 11.5698 0.733771 11.7523 0.717013 11.9449C0.700255 12.1375 0.745917 12.3303 0.84747 12.4959L2.71357 15.6671C2.81163 15.8344 2.96093 15.967 3.1402 16.046C3.31947 16.125 3.51956 16.1464 3.71193 16.1071L5.46606 15.7588C5.68926 15.7135 5.92162 15.75 6.1193 15.8615C6.31697 15.9729 6.46629 16.1516 6.53906 16.3637L7.10822 18.041C7.17314 18.2307 7.29949 18.3943 7.46797 18.5069C7.63646 18.6194 7.8378 18.6747 8.04127 18.6642H11.7735C11.9691 18.6647 12.1599 18.6048 12.319 18.493C12.478 18.3812 12.5973 18.223 12.6599 18.041L13.229 16.3637C13.3018 16.1516 13.4511 15.9729 13.6488 15.8615C13.8465 15.75 14.0788 15.7135 14.302 15.7588L16.0562 16.1071C16.2485 16.1464 16.4486 16.125 16.6279 16.046C16.8071 15.967 16.9565 15.8344 17.0545 15.6671L18.9206 12.4959C19.0197 12.3285 19.0622 12.1345 19.0421 11.9419C19.022 11.7492 18.9403 11.5678 18.8086 11.4236L17.549 10.1037ZM16.1588 11.3319L16.9052 12.1568L15.7109 14.1915L14.6099 13.9715C13.9379 13.8366 13.2389 13.9487 12.6455 14.2867C12.0521 14.6246 11.6057 15.1647 11.3909 15.8046L11.0364 16.8312H8.64775L8.31185 15.7863C8.09712 15.1464 7.65068 14.6062 7.05728 14.2683C6.46389 13.9304 5.76484 13.8183 5.09284 13.9532L3.99184 14.1732L2.77888 12.1476L3.52532 11.3227C3.98434 10.8186 4.2381 10.166 4.2381 9.48965C4.2381 8.81331 3.98434 8.16069 3.52532 7.65657L2.77888 6.83168L3.97318 4.81529L5.07418 5.03526C5.74618 5.1702 6.44523 5.05806 7.03862 4.72015C7.63202 4.38224 8.07846 3.84207 8.29319 3.20218L8.64775 2.16648H11.0364L11.3909 3.21134C11.6057 3.85123 12.0521 4.3914 12.6455 4.72932C13.2389 5.06723 13.9379 5.17936 14.6099 5.04443L15.7109 4.82446L16.9052 6.85918L16.1588 7.68407C15.7049 8.18703 15.4543 8.83587 15.4543 9.50799C15.4543 10.1801 15.7049 10.8289 16.1588 11.3319ZM9.84205 5.83265C9.1039 5.83265 8.38231 6.04767 7.76856 6.45051C7.1548 6.85336 6.67644 7.42593 6.39396 8.09584C6.11148 8.76574 6.03757 9.50289 6.18157 10.2141C6.32558 10.9252 6.68104 11.5785 7.203 12.0912C7.72495 12.6039 8.38997 12.9531 9.11394 13.0945C9.83791 13.236 10.5883 13.1634 11.2703 12.8859C11.9523 12.6084 12.5352 12.1385 12.9453 11.5356C13.3554 10.9327 13.5742 10.2239 13.5742 9.49882C13.5742 8.52649 13.181 7.59399 12.4811 6.90645C11.7812 6.21891 10.8319 5.83265 9.84205 5.83265ZM9.84205 11.3319C9.47298 11.3319 9.11218 11.2244 8.80531 11.023C8.49843 10.8216 8.25925 10.5353 8.11801 10.2003C7.97677 9.86536 7.93981 9.49679 8.01181 9.1412C8.08382 8.78562 8.26155 8.459 8.52252 8.20263C8.7835 7.94627 9.11601 7.77169 9.478 7.70096C9.83998 7.63023 10.2152 7.66653 10.5562 7.80527C10.8972 7.94401 11.1886 8.17896 11.3937 8.48041C11.5987 8.78186 11.7082 9.13627 11.7082 9.49882C11.7082 9.98498 11.5115 10.4512 11.1616 10.795C10.8116 11.1388 10.337 11.3319 9.84205 11.3319Z" fill="#7962D5"/>
</svg>
