<svg width="32" height="32" viewBox="0 0 32 32" fill="none" xmlns="http://www.w3.org/2000/svg">
<path d="M32.4977 5.77981C32.5222 5.47951 32.5222 5.1777 32.4977 4.87739C32.3241 3.6449 31.703 2.51939 30.7528 1.7154C29.8026 0.911406 28.5898 0.485146 27.3456 0.517866H5.71961C5.21763 0.530199 4.71877 0.600675 4.23303 0.727885C3.14091 1.02772 2.18111 1.68558 1.50751 2.59599C0.833908 3.5064 0.485527 4.61661 0.518222 5.74864V27.2017C0.511658 27.6414 0.55596 28.0795 0.647846 28.5094C0.901006 29.6748 1.55566 30.7143 2.49741 31.4461C3.43916 32.1778 4.60811 32.5554 5.80001 32.5129H27.2307C27.8682 32.5175 28.5018 32.4137 29.1045 32.206C30.1133 31.8677 30.9871 31.2149 31.5975 30.3435C32.2079 29.472 32.5229 28.4278 32.4961 27.3641C32.5125 20.1152 32.4977 12.9483 32.4977 5.77981ZM27.0387 23.6872C26.5235 23.9825 26.1592 24.081 25.5997 24.2795C25.4841 24.3092 25.3771 24.3656 25.2873 24.4443C25.1975 24.523 25.1275 24.6216 25.0829 24.7323C24.962 25.066 24.7432 25.3555 24.4552 25.5627C24.1671 25.77 23.8231 25.8855 23.4683 25.894L22.1278 25.976C21.3951 26.079 20.6976 26.3552 20.0932 26.7817C19.2114 27.3635 18.1974 27.7143 17.1446 27.8017C16.0917 27.8892 15.0338 27.7105 14.0681 27.2821C13.697 27.136 13.3445 26.9466 13.018 26.7177C12.1957 26.1721 11.2266 25.8905 10.2401 25.9104C9.94152 25.9153 9.64333 25.8878 9.35073 25.8284C9.06193 25.783 8.79084 25.6602 8.56633 25.473C8.34182 25.2857 8.1723 25.0411 8.07582 24.7652C8.03656 24.6378 7.96296 24.5237 7.8631 24.4354C7.76323 24.3471 7.64097 24.2881 7.50974 24.2647C6.81605 24.1064 6.17231 23.7789 5.63593 23.3114C5.43542 23.158 5.27886 22.9545 5.182 22.7214C5.08513 22.4882 5.05139 22.2337 5.08416 21.9834C5.11692 21.7331 5.21505 21.4958 5.36865 21.2954C5.52226 21.0951 5.72593 20.9387 5.95917 20.8421C6.54166 20.5024 7.1225 20.1792 7.67218 19.792C8.34491 19.3047 8.89787 18.6697 9.28674 17.9363C9.52958 17.4522 9.51317 17.403 9.07672 17.1126C8.61483 16.819 8.17252 16.4956 7.75258 16.1446C7.45144 15.8966 7.23297 15.5628 7.12628 15.1876C7.01958 14.8125 7.02971 14.4137 7.15532 14.0444C7.29576 13.5542 7.61794 13.1362 8.05611 12.8755C8.49427 12.6148 9.01541 12.5311 9.51317 12.6415H9.82001C9.67748 11.5782 9.7907 10.4962 10.1503 9.48548C10.5098 8.47471 11.1054 7.56432 11.8874 6.82991C13.1774 5.74422 14.8209 5.16972 16.5063 5.21539C17.4799 5.18326 18.4491 5.35959 19.349 5.73255C20.2489 6.10551 21.0587 6.6665 21.7241 7.37792C22.3449 8.11387 22.8084 8.96915 23.0861 9.89105C23.3638 10.8129 23.4498 11.7819 23.3387 12.7383C23.7046 12.7055 24.0721 12.7055 24.438 12.7383C24.8205 12.7807 25.1806 12.9398 25.4695 13.1941C25.7583 13.4483 25.9619 13.7853 26.0526 14.1592C26.159 14.5238 26.1578 14.9115 26.0489 15.2754C25.94 15.6393 25.7282 15.9639 25.4389 16.2102C24.9963 16.5811 24.5322 16.9257 24.0492 17.2422C23.6783 17.4834 23.6619 17.5326 23.8555 17.9363C24.4502 19.0337 25.3547 19.9318 26.4562 20.5188L27.1667 20.9061C27.4218 21.0222 27.6389 21.2082 27.7928 21.4425C27.9466 21.6769 28.031 21.95 28.0361 22.2302C28.0413 22.5105 27.967 22.7865 27.8218 23.0263C27.6767 23.2662 27.4666 23.46 27.2159 23.5854L27.0387 23.6872Z" fill="#FFF852"/>
<path d="M26.0857 21.9561C26.0857 22.0677 25.9249 22.2301 25.7952 22.2777C25.2784 22.4877 24.7615 22.6977 24.1807 22.8602C23.9737 22.8906 23.7841 22.9929 23.6452 23.1493C23.5063 23.3056 23.4269 23.5059 23.421 23.715C23.4209 23.7813 23.4072 23.847 23.3808 23.9078C23.3544 23.9687 23.3157 24.0235 23.2673 24.0688C23.2189 24.1142 23.1617 24.1492 23.0992 24.1715C23.0367 24.1939 22.9703 24.2033 22.9041 24.199L21.2896 24.3122C20.4642 24.4501 19.6816 24.77 18.9957 25.2475C18.198 25.7698 17.2615 26.04 16.3082 26.0231C15.3548 26.0061 14.4286 25.7027 13.6499 25.1523C12.6854 24.538 11.5627 24.2181 10.4192 24.2318H10.3371C9.70869 24.2318 9.62829 24.1334 9.53149 23.5214C9.52293 23.3987 9.47857 23.2813 9.4039 23.1836C9.32924 23.0859 9.22755 23.0122 9.11144 22.9717C8.83578 22.8602 8.56176 22.7945 8.28775 22.6813C8.01209 22.5697 7.57727 22.4237 7.23762 22.2629C6.89798 22.1005 6.93079 22.0677 6.93079 21.9397C6.93079 21.8101 7.09159 21.6969 7.22122 21.6329C8.30439 21.1241 9.26781 20.3922 10.0483 19.4851C10.5406 18.8944 10.9016 18.2069 11.1149 17.4669C11.1817 17.3132 11.1907 17.1404 11.14 16.9805C11.0893 16.8206 10.9825 16.6845 10.8392 16.5973C10.4028 16.3053 9.95153 16.0149 9.53149 15.708C9.30901 15.552 9.10336 15.3733 8.91782 15.1748C8.8401 15.0637 8.79841 14.9314 8.79841 14.7958C8.79841 14.6602 8.8401 14.5279 8.91782 14.4168C8.97579 14.3011 9.0707 14.2081 9.18752 14.1525C9.30433 14.097 9.43636 14.082 9.56266 14.1099C9.89575 14.1788 10.2256 14.2658 10.5472 14.3675L10.7605 14.4168L10.9787 14.5086C11.4315 14.6711 11.4217 14.4496 11.4053 13.9803C11.3326 12.9326 11.3326 11.8811 11.4053 10.8333C11.515 9.99505 11.8644 9.20629 12.4117 8.56187C12.9589 7.91744 13.6806 7.44476 14.49 7.20065C15.8713 6.68077 17.4011 6.7214 18.7529 7.31387C19.6317 7.64778 20.3851 8.24646 20.9089 9.02714C21.4327 9.80783 21.701 10.7319 21.6768 11.6718V14.256C21.6768 14.6744 21.7588 14.7236 22.1297 14.594L23.2274 14.2231C23.3663 14.1988 23.5085 14.1988 23.6474 14.2231C23.7701 14.2115 23.8934 14.2359 24.0024 14.2933C24.1114 14.3507 24.2013 14.4387 24.2611 14.5464C24.3407 14.6505 24.3838 14.7779 24.3838 14.909C24.3838 15.04 24.3407 15.1675 24.2611 15.2716C24.0821 15.4755 23.8819 15.6597 23.6638 15.8213C23.2914 16.0789 22.9041 16.3053 22.5153 16.5645C22.1297 16.8221 21.9032 17.129 22.1133 17.759C22.4903 18.9195 23.2184 19.9343 24.1971 20.6632C24.714 21.0668 25.0273 21.2325 25.6115 21.6312C25.8592 21.7986 26.1021 21.8429 26.0857 21.9561Z" fill="white"/>
</svg>
