<svg width="32" height="32" viewBox="0 0 32 32" fill="none" xmlns="http://www.w3.org/2000/svg">
<path d="M16 32C24.8366 32 32 24.8366 32 16C32 7.16344 24.8366 0 16 0C7.16344 0 0 7.16344 0 16C0 24.8366 7.16344 32 16 32Z" fill="#34E0A1"/>
<path d="M25.8821 12.8788L27.8129 10.7782H23.5313C21.3879 9.31403 18.7992 8.4613 15.9997 8.4613C13.2037 8.4613 10.6223 9.31587 8.48235 10.7782H4.19006L6.12079 12.8788C4.93735 13.9585 4.19545 15.5139 4.19545 17.2408C4.19545 20.4998 6.83771 23.142 10.0967 23.142C11.6449 23.142 13.0553 22.5449 14.1083 21.5688L15.9997 23.6283L17.8911 21.5706C18.9441 22.5467 20.3528 23.142 21.9009 23.142C25.1599 23.142 27.8057 20.4998 27.8057 17.2408C27.8075 15.5121 27.0656 13.9568 25.8821 12.8788ZM10.0985 21.2345C7.8924 21.2345 6.10474 19.4469 6.10474 17.2408C6.10474 15.0347 7.89244 13.247 10.0985 13.247C12.3045 13.247 14.0922 15.0347 14.0922 17.2408C14.0922 19.4469 12.3045 21.2345 10.0985 21.2345ZM16.0015 17.1246C16.0015 14.4966 14.0904 12.2406 11.568 11.277C12.932 10.7067 14.4283 10.3902 15.9997 10.3902C17.5711 10.3902 19.0691 10.7067 20.4332 11.277C17.9126 12.2423 16.0015 14.4967 16.0015 17.1246ZM21.9027 21.2345C19.6967 21.2345 17.909 19.4469 17.909 17.2408C17.909 15.0347 19.6967 13.247 21.9027 13.247C24.1088 13.247 25.8965 15.0347 25.8965 17.2408C25.8965 19.4469 24.1087 21.2345 21.9027 21.2345ZM21.9027 15.1456C20.7461 15.1456 19.8093 16.0823 19.8093 17.239C19.8093 18.3956 20.7461 19.3324 21.9027 19.3324C23.0594 19.3324 23.9961 18.3956 23.9961 17.239C23.9961 16.0841 23.0594 15.1456 21.9027 15.1456ZM12.1919 17.2408C12.1919 18.3974 11.2551 19.3342 10.0985 19.3342C8.94183 19.3342 8.00506 18.3974 8.00506 17.2408C8.00506 16.0841 8.94183 15.1473 10.0985 15.1473C11.2551 15.1456 12.1919 16.0841 12.1919 17.2408Z" fill="black"/>
</svg>
