<svg width="32" height="32" viewBox="0 0 32 32" fill="none" xmlns="http://www.w3.org/2000/svg">
<path d="M24.2344 0.5H7.76562C3.75293 0.5 0.5 3.75293 0.5 7.76562V24.2344C0.5 28.2471 3.75293 31.5 7.76562 31.5H24.2344C28.2471 31.5 31.5 28.2471 31.5 24.2344V7.76562C31.5 3.75293 28.2471 0.5 24.2344 0.5Z" fill="white"/>
<path d="M24.2344 0.5H7.76562C3.75293 0.5 0.5 3.75293 0.5 7.76562V24.2344C0.5 28.2471 3.75293 31.5 7.76562 31.5H24.2344C28.2471 31.5 31.5 28.2471 31.5 24.2344V7.76562C31.5 3.75293 28.2471 0.5 24.2344 0.5Z" fill="#1D9BF0"/>
<path d="M23.9524 11.9831C23.9647 12.1567 23.9647 12.3303 23.9647 12.5056C23.9647 17.8436 19.8371 24 12.2897 24V23.9967C10.06 23.9999 7.87656 23.3712 6 22.1857C6.32422 22.2241 6.65 22.2433 6.97667 22.244C8.82466 22.2455 10.6195 21.6352 12.0728 20.5114C11.2165 20.4954 10.3867 20.2165 9.69942 19.7135C9.0121 19.2105 8.50162 18.5086 8.23933 17.706C8.85408 17.8227 9.48784 17.7989 10.0918 17.6364C8.17756 17.2556 6.80033 15.5997 6.80033 13.6766V13.6254C7.37099 13.9383 8.00965 14.1117 8.66256 14.131C6.85967 12.9447 6.30389 10.5832 7.39256 8.73686C8.4227 9.98492 9.70799 11.0057 11.1649 11.7328C12.6219 12.4599 14.2179 12.8772 15.8493 12.9575C15.6867 12.2681 15.7107 11.5488 15.919 10.8715C16.1273 10.1941 16.5126 9.58249 17.0363 9.09775C18.689 7.56822 21.2882 7.64666 22.8418 9.27289C23.7607 9.09428 24.6419 8.76261 25.4474 8.29218C25.1411 9.22756 24.5001 10.0215 23.6437 10.5264C24.4571 10.4321 25.2514 10.2177 26 9.89052C25.4493 10.7024 24.756 11.411 23.9524 11.9831Z" fill="white"/>
</svg>
