<svg width="26" height="26" viewBox="0 0 26 26" fill="none" xmlns="http://www.w3.org/2000/svg">
<path d="M25.4979 12.9984V12.9922C25.4979 9.29339 23.8876 5.97166 21.3306 3.68739L21.3181 3.67697C21.2865 3.64292 21.2512 3.61253 21.2129 3.58635L21.2108 3.58531C18.9397 1.59115 16.0191 0.494134 12.9969 0.500024C9.83881 0.500024 6.95571 1.67289 4.75798 3.60822L4.77152 3.59676C4.74503 3.61686 4.72061 3.63954 4.69861 3.66447C3.3774 4.83441 2.31984 6.27278 1.59601 7.8823C0.872183 9.49181 0.498597 11.2368 0.500004 13.0016C0.500004 16.6993 2.1082 20.0211 4.6632 22.3064L4.6757 22.3168C4.70878 22.3543 4.7458 22.3882 4.7861 22.4178L4.78819 22.4189C7.05866 24.4101 9.97701 25.5055 12.9969 25.5C16.0309 25.5046 18.9617 24.3991 21.2368 22.3918L21.2233 22.4032C22.5674 21.2346 23.6448 19.7909 24.3827 18.1698C25.1205 16.5486 25.5015 14.7879 25.5 13.0068V12.9995L25.4979 12.9984ZM20.8504 21.1283C20.2312 20.6274 19.5654 20.1872 18.862 19.8138L18.7943 19.7804C19.4328 17.9399 19.8171 15.8181 19.8536 13.6109V13.5942H24.2918C24.1421 16.4497 22.9131 19.1417 20.8535 21.1252L20.8504 21.1283ZM13.5947 19.5607C14.9311 19.6325 16.1799 19.9263 17.3319 20.4044L17.2569 20.3773C16.3341 22.4814 15.0352 23.9271 13.5947 24.2448V19.5607ZM13.5947 18.369V13.5942H18.6652C18.6249 15.5715 18.2821 17.531 17.6486 19.4044L17.6892 19.268C16.396 18.7364 15.0206 18.4327 13.6239 18.3701L13.5958 18.369H13.5947ZM13.5947 12.4026V7.62784C15.0292 7.56237 16.4413 7.24834 17.7684 6.69975L17.6861 6.72996C18.2641 8.41635 18.6193 10.36 18.6652 12.3808V12.4026H13.5947ZM13.5947 6.43622V1.75414C15.0352 2.07183 16.3341 3.51135 17.2569 5.62168C16.1799 6.06957 14.9311 6.36227 13.6249 6.43518L13.5947 6.43622ZM16.5674 2.26974C17.7948 2.67913 18.9426 3.29642 19.9609 4.09466L19.9369 4.07591C19.4755 4.43839 18.9578 4.78005 18.412 5.07691L18.3537 5.10607C17.9127 4.06521 17.3063 3.10248 16.558 2.25516L16.5674 2.26661V2.26974ZM12.4011 1.75726V6.43622C11.1163 6.37068 9.85225 6.08531 8.6639 5.59251L8.7389 5.61959C9.6659 3.51552 10.9627 2.07079 12.4032 1.75309L12.4011 1.75726ZM7.64316 5.10295C7.07854 4.79917 6.54057 4.44828 6.03496 4.05404L6.05996 4.07278C7.04855 3.29798 8.16053 2.69514 9.34926 2.28953L9.42842 2.26557C8.69975 3.08995 8.10601 4.02436 7.6692 5.0342L7.64316 5.10295ZM12.4032 7.6268V12.4016H7.33277C7.37859 10.359 7.73377 8.4153 8.35247 6.59247L8.31185 6.72892C9.60451 7.25959 10.9791 7.563 12.3751 7.62575L12.4032 7.6268ZM12.4032 13.5932V18.368C10.9687 18.4335 9.55657 18.7475 8.22957 19.2961L8.31185 19.2659C7.73377 17.5805 7.37859 15.6358 7.33277 13.6151V13.5932H12.4032ZM12.4032 19.5596V24.2417C10.9627 23.924 9.66382 22.4845 8.74098 20.3742C9.81797 19.9263 11.0668 19.6346 12.373 19.5617L12.4032 19.5596ZM9.43467 23.7261C8.20764 23.3179 7.05981 22.702 6.04121 21.9053L6.0662 21.9241C6.52762 21.5616 7.04529 21.22 7.59108 20.9231L7.64941 20.8939C8.08675 21.9352 8.69313 22.8971 9.44405 23.7407L9.43467 23.7303V23.7261ZM18.3548 20.8929C18.9589 21.221 19.4765 21.5616 19.963 21.9418L19.938 21.9231C18.9494 22.6979 17.8374 23.3007 16.6487 23.7063L16.5695 23.7303C17.2982 22.9063 17.8919 21.9722 18.3287 20.9627L18.3548 20.895V20.8929ZM24.2918 12.4026H19.8536C19.8217 10.2475 19.4498 8.11085 18.7516 6.07166L18.7943 6.2154C19.5301 5.82798 20.2267 5.37032 20.8743 4.84879L20.8493 4.86754C22.9047 6.84353 24.1341 9.5255 24.2897 12.3724L24.2918 12.4026ZM5.14753 4.86858C5.74748 5.35606 6.42138 5.80292 7.13591 6.18311L7.20361 6.21644C6.56512 8.05699 6.18078 10.1788 6.14432 12.386V12.4026H1.70511C1.85478 9.54713 3.0838 6.85517 5.14337 4.87171L5.14753 4.86858ZM1.70615 13.5942H6.14432C6.17625 15.7494 6.54816 17.886 7.24631 19.9252L7.20361 19.7815C6.42138 20.1971 5.74852 20.6439 5.12358 21.1481L5.14857 21.1293C3.09326 19.1533 1.86381 16.4714 1.70824 13.6245L1.70719 13.5953L1.70615 13.5942Z" fill="#ffffff"/>
</svg>
