<svg width="30" height="34" viewBox="0 0 30 34" fill="none" xmlns="http://www.w3.org/2000/svg">
<rect x="2.29626" y="5.74817" width="25.4075" height="25.4075" rx="6" fill="white"/>
<g clip-path="url(#clip0_213_86)">
<path d="M6.66458 16.9106C6.66458 18.4993 7.10695 20.0497 7.94111 21.3832L8.13702 21.7022L7.29653 24.803L10.4499 23.9672L10.7533 24.1522C12.0298 24.9178 13.4959 25.3261 14.9936 25.3261H14.9999C19.5879 25.3261 23.4238 21.5554 23.4238 16.917C23.4238 14.6712 22.4632 12.5593 20.8897 10.9706C19.3098 9.37559 17.2244 8.5015 14.9999 8.5015C10.4057 8.5015 6.6709 12.2722 6.66458 16.9106ZM18.2102 21.7213C17.414 21.8425 16.7947 21.7787 15.2085 21.0897C12.8829 20.0752 11.3031 17.8039 10.9808 17.3445C10.9555 17.3062 10.9365 17.2871 10.9302 17.2743C10.8038 17.1084 9.90646 15.9026 9.90646 14.6584C9.90646 13.4845 10.4752 12.8783 10.7406 12.5976C10.7596 12.5785 10.7722 12.5657 10.7849 12.5466C11.0124 12.2913 11.2841 12.2275 11.4547 12.2275C11.619 12.2275 11.7897 12.2275 11.935 12.2339H11.9856C12.1309 12.2339 12.3142 12.2339 12.4974 12.6678C12.5733 12.8528 12.687 13.1335 12.8071 13.4206C13.0156 13.9311 13.2305 14.4606 13.2684 14.5436C13.3316 14.6712 13.3758 14.8179 13.2874 14.9838C13.0725 15.4177 12.8513 15.6473 12.6997 15.8132C12.5038 16.0174 12.4153 16.1131 12.5543 16.3619C13.5212 18.0399 14.4881 18.6205 15.9605 19.367C16.2133 19.4946 16.3586 19.4755 16.504 19.3032C16.6493 19.1373 17.1296 18.5631 17.2939 18.3143C17.4582 18.0591 17.6288 18.1037 17.8563 18.1867C18.0838 18.2696 19.3161 18.8821 19.5689 19.0097C19.6195 19.0352 19.6637 19.0544 19.7016 19.0735C19.8786 19.1628 19.9986 19.2203 20.0492 19.3032C20.1061 19.4244 20.1061 19.9349 19.8975 20.5218C19.689 21.1152 18.6905 21.6511 18.2102 21.7213ZM29.1555 6.7916C29.1555 4.53938 27.3419 2.70825 25.1111 2.70825H4.88881C2.65805 2.70825 0.84436 4.53938 0.84436 6.7916V27.2083C0.84436 29.4605 2.65805 31.2917 4.88881 31.2917H25.1111C27.3419 31.2917 29.1555 29.4605 29.1555 27.2083V6.7916ZM10.2035 25.7983L4.88881 27.2083L6.31069 21.9638C5.43229 20.4325 4.97097 18.6907 4.97097 16.9043C4.97729 11.3279 9.47042 6.7916 14.9936 6.7916C17.6731 6.7916 20.1882 7.84433 22.0841 9.7584C23.9736 11.6725 25.1111 14.2118 25.1111 16.917C25.1111 22.4933 20.5168 27.0297 14.9936 27.0297C13.3127 27.0297 11.6633 26.6022 10.2035 25.7983Z" fill="#00DE5E"/>
</g>
<defs>
<clipPath id="clip0_213_86">
<rect width="28.3112" height="32.6667" fill="white" transform="translate(0.84436 0.666626)"/>
</clipPath>
</defs>
</svg>
