<svg width="32" height="32" viewBox="0 0 32 32" fill="none" xmlns="http://www.w3.org/2000/svg">
<path d="M31.4974 15.9981V15.9903C31.4974 11.4038 29.5007 7.28486 26.3299 4.45236L26.3144 4.43944C26.2752 4.39722 26.2315 4.35953 26.1839 4.32707L26.1814 4.32578C23.3652 1.85303 19.7437 0.492726 15.9961 0.500029C12.0801 0.500029 8.50508 1.95438 5.7799 4.35419L5.79669 4.33999C5.76384 4.3649 5.73355 4.39303 5.70628 4.42394C4.06797 5.87467 2.75661 7.65825 1.85906 9.65405C0.961507 11.6498 0.49826 13.8136 0.500005 16.0019C0.500005 20.5872 2.49417 24.7061 5.66236 27.5399L5.67786 27.5528C5.71889 27.5993 5.76479 27.6413 5.81477 27.6781L5.81735 27.6794C8.63274 30.1485 12.2515 31.5068 15.9961 31.5C19.7583 31.5058 23.3925 30.1349 26.2136 27.6458L26.1969 27.66C27.8636 26.2109 29.1996 24.4207 30.1145 22.4105C31.0294 20.4003 31.5019 18.217 31.5 16.0084V15.9994L31.4974 15.9981ZM25.7345 26.0791C24.9667 25.458 24.1411 24.9122 23.2689 24.4491L23.1849 24.4077C23.9767 22.1255 24.4533 19.4945 24.4985 16.7575V16.7369H30.0018C29.8162 20.2777 28.2922 23.6157 25.7384 26.0752L25.7345 26.0791ZM16.7375 24.1352C18.3945 24.2243 19.9431 24.5886 21.3716 25.1814L21.2786 25.1478C20.1343 27.7569 18.5237 29.5496 16.7375 29.9436V24.1352ZM16.7375 22.6576V16.7369H23.0248C22.9749 19.1887 22.5498 21.6184 21.7642 23.9415L21.8146 23.7723C20.2111 23.1132 18.5056 22.7365 16.7736 22.6589L16.7388 22.6576H16.7375ZM16.7375 15.2593V9.33852C18.5162 9.25734 20.2673 8.86795 21.9128 8.18769L21.8107 8.22515C22.5275 10.3163 22.968 12.7264 23.0248 15.2321V15.2593H16.7375ZM16.7375 7.86092V2.05513C18.5237 2.44907 20.1343 4.23408 21.2786 6.85088C19.9431 7.40627 18.3945 7.76921 16.7749 7.85963L16.7375 7.86092ZM20.4236 2.69448C21.9455 3.20212 23.3688 3.96756 24.6315 4.95738L24.6018 4.93413C24.0296 5.38361 23.3877 5.80726 22.7109 6.17537L22.6386 6.21153C22.0917 4.92086 21.3398 3.72708 20.412 2.67639L20.4236 2.6906V2.69448ZM15.2574 2.059V7.86092C13.6642 7.77964 12.0968 7.42578 10.6232 6.81471L10.7162 6.84829C11.8657 4.23924 13.4737 2.44778 15.2599 2.05384L15.2574 2.059ZM9.35751 6.20766C8.6574 5.83097 7.99031 5.39587 7.36335 4.907L7.39434 4.93025C8.6202 3.96949 9.99905 3.22197 11.4731 2.71902L11.5712 2.68931C10.6677 3.71153 9.93145 4.87021 9.3898 6.12241L9.35751 6.20766ZM15.2599 9.33723V15.258H8.97263C9.02946 12.7251 9.46988 10.315 10.2371 8.05466L10.1867 8.22386C11.7896 8.8819 13.4941 9.25812 15.2251 9.33594L15.2599 9.33723ZM15.2599 16.7356V22.6563C13.4812 22.7375 11.7301 23.1269 10.0847 23.8071L10.1867 23.7697C9.46988 21.6799 9.02946 19.2684 8.97263 16.7627V16.7356H15.2599ZM15.2599 24.1339V29.9397C13.4737 29.5458 11.8631 27.7608 10.7188 25.144C12.0543 24.5886 13.6029 24.2269 15.2225 24.1365L15.2599 24.1339ZM11.579 29.3004C10.0575 28.7942 8.63416 28.0305 7.3711 27.0426L7.40209 27.0659C7.97425 26.6164 8.61616 26.1927 9.29294 25.8246L9.36526 25.7885C9.90757 27.0797 10.6595 28.2724 11.5906 29.3184L11.579 29.3055V29.3004ZM22.6399 25.7872C23.389 26.194 24.0309 26.6164 24.6341 27.0878L24.6031 27.0646C23.3772 28.0253 21.9984 28.7729 20.5243 29.2758L20.4262 29.3055C21.3297 28.2838 22.066 27.1255 22.6076 25.8737L22.6399 25.7898V25.7872ZM30.0018 15.2593H24.4985C24.4589 12.5869 23.9977 9.93745 23.132 7.40885L23.1849 7.5871C24.0973 7.1067 24.9611 6.53919 25.7642 5.8925L25.7332 5.91575C28.2818 8.36597 29.8063 11.6916 29.9992 15.2218L30.0018 15.2593ZM6.26294 5.91704C7.00688 6.52152 7.84252 7.07562 8.72852 7.54706L8.81248 7.58839C8.02075 9.87066 7.54417 12.5017 7.49896 15.2386V15.2593H1.99434C2.17992 11.7184 3.70391 8.38041 6.25777 5.92092L6.26294 5.91704ZM1.99563 16.7369H7.49896C7.53855 19.4093 7.99972 22.0587 8.86543 24.5873L8.81248 24.409C7.84252 24.9244 7.00817 25.4785 6.23323 26.1036L6.26423 26.0804C3.71565 23.6302 2.19113 20.3045 1.99821 16.7743L1.99692 16.7382L1.99563 16.7369Z" fill="#7962D5"/>
</svg>
