<svg width="38" height="26" viewBox="0 0 38 26" fill="none" xmlns="http://www.w3.org/2000/svg">
<g clip-path="url(#clip0_213_178)">
<path d="M36.6828 4.39931C36.4706 3.64563 36.0566 2.95853 35.4821 2.40643C34.9076 1.85432 34.1926 1.45647 33.4083 1.2525C30.5371 0.5 18.9812 0.5 18.9812 0.5C18.9812 0.5 7.42481 0.522778 4.55355 1.27528C3.76925 1.47926 3.05425 1.87713 2.47974 2.42926C1.90522 2.9814 1.49125 3.66852 1.27905 4.42222C0.410563 9.32472 0.0736606 16.795 1.3029 21.5014C1.51512 22.2551 1.9291 22.9422 2.50361 23.4943C3.07812 24.0464 3.79312 24.4442 4.5774 24.6482C7.44866 25.4007 19.0048 25.4007 19.0048 25.4007C19.0048 25.4007 30.5608 25.4007 33.4319 24.6482C34.2162 24.4442 34.9312 24.0464 35.5058 23.4943C36.0803 22.9422 36.4943 22.2551 36.7066 21.5014C37.6226 16.5919 37.9049 9.12625 36.6828 4.39931Z" fill="#FF0000"/>
<path d="M15.303 18.2862L24.8894 12.9503L15.303 7.6145V18.2862Z" fill="white"/>
</g>
<defs>
<clipPath id="clip0_213_178">
<rect width="37" height="25" fill="white" transform="translate(0.5 0.5)"/>
</clipPath>
</defs>
</svg>
